<svg xmlns="http://www.w3.org/2000/svg"
    xmlns:xlink="http://www.w3.org/1999/xlink" 
    zoomAndPan="magnify" 
    viewBox="0 0 512 512" 
    preserveAspectRatio="xMidYMid meet" 
    version="1.0"
    xml:space="preserve">
<defs>
<g/>
</defs>
<g fill="#0d4486" fill-opacity="1">
<g transform="translate(0.00000435, 594.645507)">
<g>
<path d="M 215.921875 52.90625 L 149.34375 52.90625 L 11.140625 -391.34375 L 77.96875 -391.34375 Z M 215.921875 52.90625 "/>
</g>
</g>
<g transform="translate(217.446505, 594.645507)">
<g>
<path d="M 215.921875 52.90625 L 149.34375 52.90625 L 11.140625 -391.34375 L 77.96875 -391.34375 Z M 215.921875 52.90625 "/>
</g>
</g>
<g transform="translate(434.893007, 594.645507)">
<g>
<path d="M 71.390625 2.28125 C 62.441406 2.28125 54.550781 0.46875 47.71875 -3.15625 C 40.882812 -6.789062 35.648438 -11.8125 32.015625 -18.21875 C 28.390625 -24.632812 26.578125 -31.894531 26.578125 -40 C 26.578125 -48.09375 28.390625 -55.347656 32.015625 -61.765625 C 35.648438 -68.179688 40.882812 -73.242188 47.71875 -76.953125 C 54.550781 -80.660156 62.441406 -82.515625 71.390625 -82.515625 C 80.492188 -82.515625 88.460938 -80.703125 95.296875 -77.078125 C 102.140625 -73.453125 107.375 -68.429688 111 -62.015625 C 114.625 -55.609375 116.4375 -48.351562 116.4375 -40.25 C 116.4375 -27.925781 112.34375 -17.753906 104.15625 -9.734375 C 95.976562 -1.722656 85.054688 2.28125 71.390625 2.28125 Z M 71.390625 2.28125 "/>
</g>
</g>
<g transform="translate(577.916611, 594.645507)">
<g>
<path d="M 71.390625 2.28125 C 62.441406 2.28125 54.550781 0.46875 47.71875 -3.15625 C 40.882812 -6.789062 35.648438 -11.8125 32.015625 -18.21875 C 28.390625 -24.632812 26.578125 -31.894531 26.578125 -40 C 26.578125 -48.09375 28.390625 -55.347656 32.015625 -61.765625 C 35.648438 -68.179688 40.882812 -73.242188 47.71875 -76.953125 C 54.550781 -80.660156 62.441406 -82.515625 71.390625 -82.515625 C 80.492188 -82.515625 88.460938 -80.703125 95.296875 -77.078125 C 102.140625 -73.453125 107.375 -68.429688 111 -62.015625 C 114.625 -55.609375 116.4375 -48.351562 116.4375 -40.25 C 116.4375 -27.925781 112.34375 -17.753906 104.15625 -9.734375 C 95.976562 -1.722656 85.054688 2.28125 71.390625 2.28125 Z M 71.390625 2.28125 "/>
</g>
</g>
<g transform="translate(720.940215, 594.645507)">
<g>
<path d="M 71.390625 2.28125 C 62.441406 2.28125 54.550781 0.46875 47.71875 -3.15625 C 40.882812 -6.789062 35.648438 -11.8125 32.015625 -18.21875 C 28.390625 -24.632812 26.578125 -31.894531 26.578125 -40 C 26.578125 -48.09375 28.390625 -55.347656 32.015625 -61.765625 C 35.648438 -68.179688 40.882812 -73.242188 47.71875 -76.953125 C 54.550781 -80.660156 62.441406 -82.515625 71.390625 -82.515625 C 80.492188 -82.515625 88.460938 -80.703125 95.296875 -77.078125 C 102.140625 -73.453125 107.375 -68.429688 111 -62.015625 C 114.625 -55.609375 116.4375 -48.351562 116.4375 -40.25 C 116.4375 -27.925781 112.34375 -17.753906 104.15625 -9.734375 C 95.976562 -1.722656 85.054688 2.28125 71.390625 2.28125 Z M 71.390625 2.28125 "/>
</g>
</g>
</g>
</svg>