<?xml version="1.0" encoding="UTF-8"?>
<svg version="1.1" xmlns="http://www.w3.org/2000/svg" width="" height="">
<path d="M0 0 C0.4125 0.39832031 0.825 0.79664062 1.25 1.20703125 C8.87274819 8.20022212 16.88424387 10.11900058 27.15226746 10.13130188 C28.9708728 10.13731415 28.9708728 10.13731415 30.82621765 10.14344788 C32.14322159 10.14291916 33.46022552 10.14239044 34.81713867 10.1418457 C36.22873035 10.14488039 37.64032105 10.14840269 39.0519104 10.15237427 C42.08513178 10.160241 45.11834153 10.16539982 48.15157127 10.16866493 C52.95641512 10.17459814 57.7611858 10.19116104 62.56599426 10.21000671 C64.21432395 10.21634357 65.86265369 10.2226692 67.51098347 10.22898388 C68.74898274 10.2337326 68.74898274 10.2337326 70.0119921 10.23857725 C81.19100588 10.28056544 92.36998485 10.31361397 103.54907227 10.32592773 C111.09922936 10.33432944 118.64920417 10.35689661 126.19927007 10.3952834 C130.18857088 10.4149708 134.17759967 10.42747308 138.16695213 10.42244911 C141.92396302 10.41777509 145.68045924 10.43175645 149.43736649 10.45946121 C151.45693465 10.4695753 153.4765718 10.4601678 155.49613953 10.44996643 C165.01472634 10.54672482 174.59011694 11.78652983 181.6875 18.75 C182.65236328 19.67039062 182.65236328 19.67039062 183.63671875 20.609375 C184.31154297 21.29773438 184.31154297 21.29773438 185 22 C184.20875876 24.06266324 183.41698909 26.12512379 182.625 28.1875 C181.96371094 29.91033203 181.96371094 29.91033203 181.2890625 31.66796875 C180.21147857 34.45335994 179.1163557 37.22997721 178 40 C177.50123195 39.71703095 177.00246389 39.43406191 176.48858166 39.14251804 C169.63286486 35.64028658 163.59066495 35.43945123 155.99145508 35.50170898 C154.71540405 35.49619019 153.43935303 35.49067139 152.12463379 35.48498535 C149.36472611 35.47309785 146.60519933 35.47347499 143.84528542 35.48357964 C139.46773958 35.49925368 135.09057799 35.48538259 130.71305847 35.46754456 C122.20148285 35.43681106 113.69002662 35.43521859 105.17840576 35.43719482 C94.36308014 35.43858988 83.54784763 35.42797922 72.73258895 35.3886171 C68.39518685 35.37381511 64.05813128 35.37385469 59.7207247 35.38609493 C57.66339666 35.3897024 55.60620958 35.38645082 53.54888916 35.38031006 C51.06002031 35.37301384 48.57108635 35.37599553 46.08226013 35.39228821 C32.81663961 35.31262872 19.98191518 33.42825632 9.97265625 24.11328125 C3.38298028 17.02206545 -0.18344844 9.72276716 0 0 Z " fill="#0D538B" transform="translate(360,95)"/>
<path d="M0 0 C1.739429 5.21828701 -0.71900503 10.38190809 -3.0703125 15.1875 C-8.9565413 25.16680181 -16.89001157 30.92702448 -28 34 C-34.63234719 35.25055911 -41.2203894 35.14477845 -47.95263672 35.1418457 C-49.93826005 35.14717904 -51.92388338 35.15251834 -53.90950608 35.15808237 C-56.03343008 35.16326169 -58.15734795 35.16618713 -60.2812767 35.16866493 C-64.72020047 35.17460587 -69.15904537 35.1911746 -73.59793091 35.21000671 C-75.12141986 35.21634308 -76.64490886 35.22266872 -78.1683979 35.22898388 C-78.9310635 35.23214969 -79.6937291 35.2353155 -80.47950578 35.23857725 C-90.80452006 35.28055679 -101.12949582 35.3136295 -111.45458984 35.32592773 C-118.43231864 35.33432396 -125.40984993 35.35686768 -132.3874799 35.3952834 C-136.0737771 35.41498292 -139.75977948 35.42746889 -143.44613266 35.42244911 C-147.56055364 35.41691386 -151.6742426 35.44227412 -155.78857422 35.4699707 C-156.99821838 35.46336929 -158.20786255 35.45676788 -159.4541626 35.44996643 C-166.51766965 35.52791744 -171.8255413 36.48497817 -178 40 C-178.81974263 37.96123051 -179.6304807 35.91883925 -180.4375 33.875 C-180.88996094 32.73804688 -181.34242188 31.60109375 -181.80859375 30.4296875 C-182.93202638 27.19567488 -183.81189 24.41974335 -184 21 C-180.50293396 15.71989042 -173.60320516 12.87180001 -167.66411114 11.43482876 C-164.73340378 10.95648691 -161.96898856 10.86620233 -158.9992218 10.85523987 C-157.7951619 10.84834137 -156.59110199 10.84144287 -155.35055542 10.83433533 C-153.38132614 10.83041527 -153.38132614 10.83041527 -151.37231445 10.82641602 C-149.96909888 10.8201062 -148.5658853 10.81333993 -147.16267395 10.80615234 C-144.14471668 10.79150909 -141.12676701 10.77977336 -138.10878944 10.77020454 C-133.32950379 10.75471091 -128.55028351 10.7307602 -123.77104187 10.70530701 C-110.18179466 10.63421891 -96.59250994 10.57441889 -83.00317383 10.52319336 C-75.49483101 10.49481561 -67.98655326 10.45939364 -60.47827882 10.41653961 C-55.73511242 10.38988794 -50.99201956 10.37190869 -46.24879324 10.36050236 C-43.28628772 10.35132164 -40.32387087 10.33393429 -37.36141777 10.31432343 C-35.34999928 10.30338812 -33.33853541 10.30210291 -31.3270874 10.30119324 C-21.34752182 10.22157749 -11.54111964 9.69407976 -3 4 C-1.02575131 1.93455106 -1.02575131 1.93455106 0 0 Z " fill="#0D538B" transform="translate(820,95)"/>
<path d="M0 0 C0.33 0.66 0.66 1.32 1 2 C-2.2109364 10.85358615 -6.77104791 18.00940583 -15.39944935 22.15200424 C-22.48123832 24.88537652 -28.62211329 25.55528071 -36.17260742 25.45410156 C-37.33488861 25.45468567 -38.4971698 25.45526978 -39.69467163 25.45587158 C-43.49858504 25.45310689 -47.3016939 25.42209014 -51.10546875 25.390625 C-53.75777003 25.38315685 -56.41002797 25.37726965 -59.06233215 25.37347412 C-65.30593706 25.36110099 -71.5492578 25.32835738 -77.79273826 25.28807616 C-84.90769069 25.24318064 -92.02265756 25.221327 -99.13771665 25.20129442 C-113.75862354 25.15961871 -128.37930779 25.08937845 -143 25 C-143.03540736 21.91462971 -142.99346806 18.83495944 -142.9375 15.75 C-142.94845703 14.87730469 -142.95941406 14.00460938 -142.97070312 13.10546875 C-142.90310204 10.5752566 -142.71838312 8.42798333 -142 6 C-136.45512715 0.90128752 -130.11127749 1.42770472 -122.8894043 1.4699707 C-121.68524872 1.46123932 -120.48109314 1.45250793 -119.240448 1.44351196 C-115.95293915 1.42335636 -112.66597063 1.42062259 -109.37842155 1.42542672 C-105.92504147 1.42602273 -102.47181723 1.40328612 -99.01850891 1.38285828 C-92.47515088 1.34749356 -85.93190367 1.33144122 -79.38846093 1.3230831 C-69.80858066 1.31014062 -60.22879595 1.27166456 -50.64900684 1.22898388 C-49.94332103 1.22584519 -49.23763522 1.22270651 -48.51056498 1.21947271 C-47.10214705 1.21318974 -45.69372938 1.20684608 -44.285312 1.20044011 C-39.52741123 1.17960803 -34.76958449 1.16973854 -30.01164246 1.16316223 C-27.5073545 1.15614136 -25.00306676 1.14904007 -22.4987793 1.1418457 C-21.37688705 1.14237442 -20.25499481 1.14290314 -19.09910583 1.14344788 C-12.67291264 1.11904259 -6.37988899 0.78015771 0 0 Z " fill="#115890" transform="translate(785,132)"/>
<path d="M0 0 C0.64755595 0.07035776 1.2951119 0.14071552 1.96229076 0.21320534 C9.2013139 0.94261939 16.35593482 1.15094614 23.62817383 1.15771484 C24.83933868 1.16279556 26.05050354 1.16787628 27.29837036 1.17311096 C30.58520632 1.18650781 33.87202949 1.19594886 37.15888047 1.20452833 C40.61405914 1.21534044 44.06919281 1.23389507 47.52433777 1.25234985 C59.2648054 1.31394192 71.00526393 1.36836541 82.74584961 1.40136719 C89.24855323 1.41972439 95.7511202 1.44865878 102.25372332 1.4893719 C105.68663257 1.5103936 109.11937019 1.52589258 112.55234718 1.52817917 C116.37470276 1.53307754 120.19654689 1.55620458 124.01879883 1.58349609 C125.14878799 1.58048996 126.27877716 1.57748383 127.44300842 1.5743866 C132.98904977 1.63330907 137.29198136 1.70806025 142 5 C144.03120707 8.04681061 144.24659875 8.60118324 144.1953125 12.01171875 C144.18564453 13.14770508 144.18564453 13.14770508 144.17578125 14.30664062 C144.15064453 15.48516602 144.15064453 15.48516602 144.125 16.6875 C144.11597656 17.48478516 144.10695313 18.28207031 144.09765625 19.10351562 C144.07411585 21.069139 144.03824547 23.03460775 144 25 C128.67437441 25.09368781 113.34876207 25.16409848 98.02291393 25.20724869 C90.9058846 25.22782196 83.78903382 25.25584144 76.67211914 25.30175781 C70.46470983 25.34178701 64.25742991 25.36747081 58.04989511 25.37635398 C54.76686142 25.38154181 51.48428128 25.39576351 48.20134544 25.42292023 C44.52487965 25.45211262 40.84917115 25.45594923 37.17260742 25.45410156 C36.09941757 25.46848267 35.02622772 25.48286377 33.92051697 25.49768066 C25.30103083 25.45105007 17.98121066 23.5539842 10.6875 18.875 C5.65652962 13.49303168 1.88392264 7.15890602 0 0 Z " fill="#105790" transform="translate(394,132)"/>
<path d="M0 0 C27.06 0 54.12 0 82 0 C80.75357711 11.21780604 80.75357711 11.21780604 75 16 C66.23805924 21.6757511 57.47564533 22.31318877 47.28515625 22.4140625 C45.46883949 22.44311172 45.46883949 22.44311172 43.61582947 22.4727478 C39.76479033 22.53232038 35.91372095 22.57884016 32.0625 22.625 C29.44464873 22.66320027 26.82680976 22.70225318 24.20898438 22.7421875 C17.80609906 22.83800366 11.40313914 22.92311618 5 23 C6.75091097 24.12177064 8.50281194 25.24199614 10.25512695 26.36157227 C11.23060989 26.98556412 12.20609283 27.60955597 13.21113586 28.25245667 C16.47610048 30.29833157 19.77914406 32.14169956 23.1875 33.9375 C24.84845703 34.81728516 24.84845703 34.81728516 26.54296875 35.71484375 C27.35378906 36.13894531 28.16460938 36.56304687 29 37 C16.80498821 49.19501179 -17.4271121 50.699172 -34 51 C-34.70045456 49.08802961 -35.384919 47.17019565 -36.0625 45.25 C-36.44535156 44.18265625 -36.82820312 43.1153125 -37.22265625 42.015625 C-38.3970113 37.45983558 -38.3970113 37.45983558 -37 35 C-34.375 33.76171875 -34.375 33.76171875 -31 32.6875 C-24.57321657 30.38820221 -20.03870449 27.54179083 -15 23 C-14.39800781 22.52433594 -13.79601562 22.04867187 -13.17578125 21.55859375 C-6.17275531 15.5312703 -4.48005097 8.96010193 0 0 Z " fill="#1F68A0" transform="translate(640,161)"/>
<path d="M0 0 C27.06 0 54.12 0 82 0 C84.31 4.62 86.62 9.24 89 14 C97.82010112 25.08812712 107.13848818 30.39420968 120 36 C119.31421533 41.4929355 118.05708887 45.90199716 116 51 C100.25060155 50.46247787 84.78419768 47.39541249 69.5625 43.4375 C68.80042236 43.23995117 68.03834473 43.04240234 67.25317383 42.83886719 C62.63160277 41.5860845 58.35967016 39.98166825 54 38 C54 37.34 54 36.68 54 36 C55.59328125 35.22076172 55.59328125 35.22076172 57.21875 34.42578125 C58.64594213 33.72157461 60.0730193 33.01713497 61.5 32.3125 C62.19609375 31.97283203 62.8921875 31.63316406 63.609375 31.28320312 C64.30546875 30.93837891 65.0015625 30.59355469 65.71875 30.23828125 C66.34716797 29.92930908 66.97558594 29.62033691 67.62304688 29.30200195 C71.17723151 27.35515862 74.57930026 25.17083119 78 23 C77.33316193 22.99413376 76.66632385 22.98826752 75.97927856 22.98222351 C69.00284104 22.91800541 62.02685274 22.83351363 55.05078125 22.73754883 C52.45155786 22.70441196 49.85226447 22.67634551 47.25292969 22.65356445 C43.50425542 22.61981202 39.75621629 22.56748414 36.0078125 22.51171875 C34.85636749 22.50532883 33.70492249 22.4989389 32.51858521 22.49235535 C21.8883894 22.30113538 12.08268674 20.34191097 4 13 C0.75810116 8.54348138 0 5.57223185 0 0 Z " fill="#1F68A0" transform="translate(458,161)"/>
<path d="M0 0 C3.91086359 1.65459614 6.76482202 4.29301434 10 7 C11.64418383 8.03655068 13.30330285 9.05184571 15 10 C14.67386719 10.53625 14.34773437 11.0725 14.01171875 11.625 C7.77601088 22.80880645 6.35385244 35.3642254 7 48 C7.59554687 47.40445313 8.19109375 46.80890625 8.8046875 46.1953125 C13.27500408 43.1240192 17.90118611 42.15554582 23.125 40.875 C25.10801614 40.37733186 27.08985185 39.87492976 29.0703125 39.3671875 C29.94445801 39.15175293 30.81860352 38.93631836 31.71923828 38.71435547 C34.24201956 38.04134566 34.24201956 38.04134566 37 36 C37.99530794 34.10231241 37.99530794 34.10231241 38 32 C36.64555699 30.22809091 36.64555699 30.22809091 35 29 C34.401875 29.495 33.80375 29.99 33.1875 30.5 C28.56337581 32.67605844 24.0388627 32.57823015 19 32 C16.66015625 30.98046875 16.66015625 30.98046875 15 30 C15.19453336 25.81753267 15.70932418 24.29743572 18.6875 21.25 C24.92554514 16.67445274 31.47337588 16.28890906 39 17 C43.56246326 18.1490027 47.06024215 20.29808271 50 24 C52.18039724 28.0337349 52.46997072 31.45694967 52 36 C49.29840173 42.99959551 44.70155497 45.92987139 38 49 C34.67627801 50.20947493 31.31614197 51.29445808 27.91479492 52.26416016 C26.24913435 52.75840739 24.61957864 53.37097656 23 54 C21.66666667 57 21.66666667 57 23 60 C13 58 13 58 10.578125 57.44921875 C1.65661158 55.89471262 -6.97578852 56.82348094 -15.57421875 59.44140625 C-18 60 -18 60 -21 59 C-20.67 57.68 -20.34 56.36 -20 55 C-24.79060933 52.77621098 -29.53319142 50.81008419 -34.5625 49.1875 C-40.97621724 46.89946042 -45.80331303 43.3389642 -49.5625 37.625 C-50.37287073 32.76277559 -50.32591337 28.28471718 -47.80078125 23.93359375 C-44.69863205 20.03351641 -42.02467316 17.85324638 -37 17 C-29.5859147 16.38500675 -22.32546165 16.40749247 -16.36328125 21.359375 C-14.03810647 23.83106765 -12.98629257 25.38316568 -13.0625 28.8125 C-14 31 -14 31 -16 32 C-22.64161218 32.51701173 -28.34479007 32.77013995 -34 29 C-34.33 29.33 -34.66 29.66 -35 30 C-34.71269945 32.33944736 -34.38063221 34.6739143 -34 37 C-27.23590588 39.37336636 -20.42185452 41.18369507 -13.453125 42.83984375 C-9.88661707 44.03809359 -7.75707754 45.47969439 -5 48 C-4.47891751 35.47472081 -4.90216025 22.76913616 -12 12 C-12 11.01 -12 10.02 -12 9 C-10.948125 8.443125 -9.89625 7.88625 -8.8125 7.3125 C-5.26046527 5.2982364 -2.75086314 3.0009416 0 0 Z M-28 26 C-26.515 26.99 -26.515 26.99 -25 28 C-25 27.34 -25 26.68 -25 26 C-25.99 26 -26.98 26 -28 26 Z " fill="#A7311E" transform="translate(589,36)"/>
<path d="M0 0 C4.65145258 1.16286315 4.84926955 1.70621965 7.19921875 5.62109375 C8.05290039 7.02391602 8.05290039 7.02391602 8.92382812 8.45507812 C9.50583984 9.43927734 10.08785156 10.42347656 10.6875 11.4375 C11.57791992 12.90799805 11.57791992 12.90799805 12.48632812 14.40820312 C18.89738047 25.02993524 18.89738047 25.02993524 18 32 C16.95673172 34.84871702 15.53596565 37.38989621 14 40 C13.42765625 41.01900391 13.42765625 41.01900391 12.84375 42.05859375 C11.91094012 43.71433129 10.95756723 45.35845618 10 47 C7.91846065 47.13536022 5.83438794 47.23215465 3.75 47.3125 C2.58984375 47.37050781 1.4296875 47.42851562 0.234375 47.48828125 C-3 47 -3 47 -5.296875 44.54296875 C-5.85890625 43.70378906 -6.4209375 42.86460937 -7 42 C-10.28727576 40.35636212 -13.44856204 40.47592595 -17 41 C-20.13772277 42.16091683 -23.14268221 43.47885399 -26.16796875 44.90625 C-29.10894421 46.04207501 -30.89421838 46.54285931 -34 46 C-37.45899887 42.8264525 -38.71818008 37.95276308 -40.25 33.625 C-40.53101563 32.8825 -40.81203125 32.14 -41.1015625 31.375 C-42.68979337 26.92480857 -43.5474457 23.65609218 -42 19 C-40.57421875 17.34765625 -40.57421875 17.34765625 -38.6875 16.0625 C-37.97335937 15.57394531 -37.25921875 15.08539063 -36.5234375 14.58203125 C-18.21498222 3.10382012 -18.21498222 3.10382012 -10 4 C-7.8125 6 -7.8125 6 -6 8 C-4.68 8 -3.36 8 -2 8 C-1.34 5.36 -0.68 2.72 0 0 Z " fill="#BA441E" transform="translate(602,117)"/>
<path d="M0 0 C3.94684991 -0.07505712 7.89341427 -0.12902215 11.84082031 -0.16479492 C13.83152905 -0.18701479 15.82203968 -0.22516595 17.8125 -0.26367188 C28.36224854 -0.34359421 37.98530826 0.54247934 46 8 C51.91713579 14.73896021 53.36067884 23.89657205 53 32.625 C52.02159611 41.3161409 48.84869599 48.08233462 42.13671875 53.74609375 C34.33265222 58.32581104 27.4386761 58.4066672 18.5625 58.25 C17.36689453 58.24484375 16.17128906 58.2396875 14.93945312 58.234375 C6.15446608 58.15446608 6.15446608 58.15446608 5 57 C4.90680551 55.4651703 4.882542 53.92607918 4.88647461 52.38842773 C4.88655014 51.40748642 4.88662567 50.4265451 4.88670349 49.4158783 C4.89186478 48.3492244 4.89702606 47.2825705 4.90234375 46.18359375 C4.9037587 45.0974025 4.90517365 44.01121124 4.90663147 42.8921051 C4.91224952 39.40720925 4.92480508 35.92237658 4.9375 32.4375 C4.94251267 30.08138113 4.94707598 27.72526126 4.95117188 25.36914062 C4.96222481 19.57940536 4.97898049 13.78970719 5 8 C3.35 8 1.7 8 0 8 C0 5.36 0 2.72 0 0 Z M14 8 C14 21.86 14 35.72 14 50 C26.68573999 50.82877718 26.68573999 50.82877718 37 46 C41.9799707 41.0200293 43.11571919 35.99594135 43.375 29.125 C43.24863718 22.75157521 41.92771227 18.21554915 37.609375 13.47265625 C30.42624856 6.95113356 23.62511542 8 14 8 Z " fill="#02457E" transform="translate(323,350)"/>
<path d="M0 0 C4.26832981 -0.09965569 8.53602469 -0.17183391 12.80517578 -0.21972656 C14.25418917 -0.23971295 15.70312325 -0.26691197 17.15185547 -0.30175781 C32.28969496 -0.65646942 32.28969496 -0.65646942 39 4 C42.59019303 8.34429456 44.27246916 13.32006602 44 19 C42.94311376 24.24977919 41.44044126 28.70547906 37 32 C36.34 32 35.68 32 35 32 C35.5775 33.13179688 36.155 34.26359375 36.75 35.4296875 C37.50020991 36.91135207 38.25019847 38.39312873 39 39.875 C39.3815625 40.62136719 39.763125 41.36773437 40.15625 42.13671875 C40.69765625 43.20986328 40.69765625 43.20986328 41.25 44.3046875 C41.58515625 44.96452637 41.9203125 45.62436523 42.265625 46.30419922 C43 48 43 48 43 50 C44.65 50 46.3 50 48 50 C48 52.64 48 55.28 48 58 C44.23010534 58.47536325 40.75605469 58.65531167 37 58 C34.4018332 55.84650723 33.33287642 53.05432021 32 50 C30.97264027 47.6716756 29.90791833 45.35958972 28.8125 43.0625 C28.32394531 41.93972656 27.83539063 40.81695312 27.33203125 39.66015625 C24.48251878 35.79914916 24.48251878 35.79914916 15 36 C15 43.26 15 50.52 15 58 C12.03 58 9.06 58 6 58 C6 41.5 6 25 6 8 C4.02 8 2.04 8 0 8 C0 5.36 0 2.72 0 0 Z M15 8 C15 14.6 15 21.2 15 28 C17.8153125 28.0928125 17.8153125 28.0928125 20.6875 28.1875 C22.27111328 28.23970703 22.27111328 28.23970703 23.88671875 28.29296875 C27.41836599 27.96063055 29.18255429 27.11678496 32 25 C34.45665197 21.31502204 34.70086491 18.28028214 34 14 C32.20636089 11.1899654 30.98119065 9.49059532 28 8 C23.66396021 7.8606671 19.33919329 7.95745889 15 8 Z " fill="#02457E" transform="translate(376,268)"/>
<path d="M0 0 C0.55945313 0.47824219 1.11890625 0.95648438 1.6953125 1.44921875 C2.0253125 0.45921875 2.3553125 -0.53078125 2.6953125 -1.55078125 C5.6653125 -1.55078125 8.6353125 -1.55078125 11.6953125 -1.55078125 C11.76960787 4.89043672 11.82398391 11.33140384 11.86010742 17.77294922 C11.87517056 19.9630976 11.89562509 22.15321594 11.92163086 24.34326172 C11.95812239 27.49584378 11.97506389 30.64802612 11.98828125 33.80078125 C12.00376511 34.77600739 12.01924896 35.75123352 12.03520203 36.75601196 C12.03673581 42.98677258 11.27713265 47.31892903 7.1875 52.27734375 C1.94299482 56.88845458 -2.8869196 58.46274943 -9.85546875 58.44140625 C-15.23919539 58.06560743 -19.48886424 56.85713038 -24.3046875 54.44921875 C-23.3146875 52.13921875 -22.3246875 49.82921875 -21.3046875 47.44921875 C-20.48677734 47.68318359 -20.48677734 47.68318359 -19.65234375 47.921875 C-14.06936285 49.36295212 -8.92237122 50.13343727 -3.3046875 48.44921875 C-0.15514655 46.38502663 -0.15514655 46.38502663 1.6953125 43.44921875 C2.11518196 40.73758097 2.11518196 40.73758097 1.6953125 38.44921875 C1.0559375 38.92359375 0.4165625 39.39796875 -0.2421875 39.88671875 C-4.85514499 42.24026849 -9.36247058 43.03871481 -14.48828125 42.01171875 C-20.38225103 40.05077606 -23.79956059 36.83666143 -27.1171875 31.57421875 C-29.62079314 25.02743388 -29.40950688 16.56264233 -27.61328125 9.875 C-25.04602907 4.23563852 -21.07633703 0.83504352 -15.5546875 -1.92578125 C-10.27841716 -2.94044862 -4.57326041 -3.07726167 0 0 Z M-15.3046875 8.44921875 C-18.71582339 12.13693322 -19.61160551 15.04893107 -19.8046875 19.94921875 C-19.61160551 24.84950643 -18.71582339 27.76150428 -15.3046875 31.44921875 C-12.24315988 34.01428244 -10.82723635 34.44921875 -6.8046875 34.44921875 C-2.65919318 33.2647918 -0.9941316 31.77147323 1.6953125 28.44921875 C3.64423568 22.6024492 3.68875695 16.50969613 1.0078125 10.94921875 C-1.3272308 8.42484762 -3.17372114 6.85815361 -6.3046875 5.44921875 C-10.70395882 5.44921875 -11.86865938 5.87219766 -15.3046875 8.44921875 Z " fill="#02457E" transform="translate(799.3046875,285.55078125)"/>
<path d="M0 0 C9.64393809 8.87184033 15.55747932 20.57154329 16.546875 33.671875 C17.02568727 47.90733214 12.60504196 59.64554302 3.59765625 70.484375 C-4.66123892 79.22824847 -15.79985474 84.19618318 -27.7578125 85.1171875 C-42.74612375 85.44376768 -55.2362761 80.98200805 -66.3515625 70.87890625 C-75.25337 61.50359835 -79.42956017 49.59196777 -79.9140625 36.81640625 C-78.94835627 21.6065331 -73.40682298 10.13004059 -62.4140625 -0.37109375 C-44.44872476 -15.68280775 -18.02546305 -14.35165167 0 0 Z M-66.6640625 9.87890625 C-70.62489134 15.13130971 -72.91446862 20.56568637 -74.6640625 26.87890625 C-74.8909375 27.68328125 -75.1178125 28.48765625 -75.3515625 29.31640625 C-76.89214638 41.94919406 -74.36195832 53.62065996 -66.6640625 63.87890625 C-59.58705973 72.39062303 -49.97970545 79.66029855 -38.6640625 80.87890625 C-23.445103 81.88375952 -13.84080957 78.17667385 -1.4765625 69.69140625 C7.21535863 60.99948512 12.38599287 49.64473949 12.6484375 37.37890625 C12.52584889 24.26192477 7.40731286 14.23576841 -1.2890625 4.69140625 C-10.35479791 -4.00961566 -22.12481805 -7.68249263 -34.4453125 -7.43359375 C-47.48980067 -6.16713859 -58.26547928 -0.03142195 -66.6640625 9.87890625 Z " fill="#378BC1" transform="translate(621.6640625,108.12109375)"/>
<path d="M0 0 C1.8984375 1.265625 1.8984375 1.265625 2.76171875 3.203125 C2.97366638 6.40050643 1.44482929 8.54397545 -0.1015625 11.265625 C-1.2153125 10.605625 -2.3290625 9.945625 -3.4765625 9.265625 C-8.22270884 6.89255183 -12.87028243 6.27808744 -18.1015625 7.265625 C-20.39345908 8.51006687 -20.39345908 8.51006687 -22.1015625 10.265625 C-22.76836618 13.22283128 -22.76836618 13.22283128 -22.1015625 16.265625 C-18.44406915 20.90031123 -13.26296253 22.78575459 -8.03320312 25.17773438 C-3.05327983 27.5440147 1.33379013 30.13633027 3.8984375 35.265625 C4.40126582 40.77200723 4.61165279 45.66802276 2.3359375 50.765625 C-2.76120569 55.99346417 -7.37741214 57.86885702 -14.5546875 58.29296875 C-22.77223185 58.20474358 -27.93732636 55.60684323 -34.1015625 50.265625 C-32.89774802 47.77200929 -31.64727528 45.58419417 -30.1015625 43.265625 C-27.25098915 44.38857814 -24.48996364 45.56009853 -21.7265625 46.890625 C-17.1326443 48.6331457 -13.39560667 49.11079917 -8.7265625 47.390625 C-6.94246347 46.34812079 -6.94246347 46.34812079 -6.1015625 44.265625 C-5.60114104 41.35024471 -5.60114104 41.35024471 -6.1015625 38.265625 C-10.44846445 34.06977369 -15.77923158 31.88015713 -21.21875 29.44140625 C-26.14821438 27.10688632 -29.00635008 24.79706288 -32.1015625 20.265625 C-33.66718552 15.81714805 -33.31149035 12.00654683 -32.0390625 7.515625 C-24.79195552 -4.64081252 -12.03058939 -4.78187465 0 0 Z " fill="#02457E" transform="translate(630.1015625,351.734375)"/>
<path d="M0 0 C0.55945313 0.47824219 1.11890625 0.95648438 1.6953125 1.44921875 C2.0253125 0.45921875 2.3553125 -0.53078125 2.6953125 -1.55078125 C5.6653125 -1.55078125 8.6353125 -1.55078125 11.6953125 -1.55078125 C11.6953125 12.30921875 11.6953125 26.16921875 11.6953125 40.44921875 C8.7253125 40.44921875 5.7553125 40.44921875 2.6953125 40.44921875 C2.3653125 39.78921875 2.0353125 39.12921875 1.6953125 38.44921875 C1.0559375 38.92359375 0.4165625 39.39796875 -0.2421875 39.88671875 C-4.85514499 42.24026849 -9.36247058 43.03871481 -14.48828125 42.01171875 C-20.38225103 40.05077606 -23.79956059 36.83666143 -27.1171875 31.57421875 C-29.62079314 25.02743388 -29.40950688 16.56264233 -27.61328125 9.875 C-25.04602907 4.23563852 -21.07633703 0.83504352 -15.5546875 -1.92578125 C-10.27841716 -2.94044862 -4.57326041 -3.07726167 0 0 Z M-15.3046875 8.44921875 C-18.71582339 12.13693322 -19.61160551 15.04893107 -19.8046875 19.94921875 C-19.61160551 24.84950643 -18.71582339 27.76150428 -15.3046875 31.44921875 C-12.24315988 34.01428244 -10.82723635 34.44921875 -6.8046875 34.44921875 C-2.65919318 33.2647918 -0.9941316 31.77147323 1.6953125 28.44921875 C3.64423568 22.6024492 3.68875695 16.50969613 1.0078125 10.94921875 C-1.3272308 8.42484762 -3.17372114 6.85815361 -6.3046875 5.44921875 C-10.70395882 5.44921875 -11.86865938 5.87219766 -15.3046875 8.44921875 Z " fill="#02457E" transform="translate(541.3046875,285.55078125)"/>
<path d="M0 0 C5.81238441 3.93742169 9.630347 8.00402733 11 15 C11.90351243 21.62145535 10.42126167 27.4288176 6.67578125 32.953125 C2.33942184 38.37072889 -1.95603998 40.87092899 -8.875 41.8125 C-16.30980609 42.34834188 -22.08074332 40.73540534 -28 36 C-32.9417321 30.9459558 -34.66569594 26.61048383 -35.3125 19.625 C-34.73384213 12.91256866 -33.38438006 7.85497241 -28.375 3.125 C-19.89861844 -3.57834028 -9.66718184 -5.1827857 0 0 Z M-23.9375 11.3125 C-25.85051268 16.15129678 -26.41770686 19.57488246 -24.9375 24.625 C-22.0649187 29.6288513 -19.16125611 32.31960456 -13.625 34.0625 C-8.89060519 33.9808725 -5.72467491 32.94265442 -2 30 C0.985863 26.30438268 2.35550854 22.63334509 2 17.875 C1.21102659 13.89888647 -0.33779234 11.09391701 -3 8 C-10.51313438 3.20438231 -18.15400433 4.40961807 -23.9375 11.3125 Z " fill="#02457E" transform="translate(459,286)"/>
<path d="M0 0 C4.89741634 5.12520314 6.91100325 9.55024405 7.25 16.6875 C6.9872237 23.61603509 4.95924453 29.43752082 0.078125 34.47265625 C-5.45105043 38.82244334 -11.38282411 40.11198244 -18.3125 39.6875 C-25.43517226 38.71523339 -30.30706783 36.49098599 -34.75 30.75 C-39.13613486 24.52336169 -38.91796171 18.21843744 -38.3125 10.8125 C-36.81312975 4.89142005 -33.35481318 1.38300232 -28.390625 -2 C-18.90520039 -7.42024263 -8.76980426 -5.79138017 0 0 Z M-24.3125 5.8125 C-28.51348493 10.46764546 -29.6668609 13.34285959 -29.59765625 19.4921875 C-29.05728424 23.88918712 -26.53376482 26.54761858 -23.5625 29.625 C-20.25263972 31.37187071 -17.01171291 31.9267614 -13.3125 31.8125 C-8.58890862 30.17741068 -6.09263257 27.93121492 -3.3125 23.8125 C-2.07050152 20.08650457 -1.77741445 16.68270783 -2.3125 12.8125 C-4.34289501 8.96925231 -6.4305636 5.86129977 -10.3125 3.8125 C-16.0674522 2.51299466 -19.2575073 2.36591407 -24.3125 5.8125 Z " fill="#02457E" transform="translate(419.3125,370.1875)"/>
<path d="M0 0 C4.78009138 5.11358612 6.8836605 10.31244518 7.25 17.3125 C6.97028645 23.96035862 4.73916852 29.71963401 0.078125 34.5390625 C-5.4576302 38.8813292 -11.38031929 40.17463588 -18.3125 39.75 C-25.43517226 38.77773339 -30.30706783 36.55348599 -34.75 30.8125 C-39.13613486 24.58586169 -38.91796171 18.28093744 -38.3125 10.875 C-36.81312975 4.95392005 -33.35481318 1.44550232 -28.390625 -1.9375 C-18.88124164 -7.37143335 -8.84238057 -5.67247055 0 0 Z M-24.3125 5.875 C-28.51348493 10.53014546 -29.6668609 13.40535959 -29.59765625 19.5546875 C-29.05728424 23.95168712 -26.53376482 26.61011858 -23.5625 29.6875 C-20.25263972 31.43437071 -17.01171291 31.9892614 -13.3125 31.875 C-8.58890862 30.23991068 -6.09263257 27.99371492 -3.3125 23.875 C-1.74409148 19.16977445 -1.76354461 15.34851184 -3.5 10.6875 C-5.84366437 7.05077942 -7.95038709 4.58753819 -12.203125 3.3046875 C-17.07349988 2.4309943 -20.12582125 3.02044631 -24.3125 5.875 Z " fill="#02457E" transform="translate(539.3125,370.125)"/>
<path d="M0 0 C6.52575045 6.65287546 7 11.42112872 7 21 C-2.9 21 -12.8 21 -23 21 C-20.88428953 28.39490936 -20.88428953 28.39490936 -18.23828125 30.69140625 C-12.97096079 33.07398731 -9.65338544 33.39017675 -4 32 C-2.3170608 31.02763513 -0.64556566 30.03435556 1 29 C4 30 4 30 6 33 C6.0625 34.9375 6.0625 34.9375 5 37 C-0.56359652 41.23317126 -6.06085236 42.23456274 -13 42 C-19.57328125 40.9148869 -24.55654237 37.92644216 -29 33 C-33.00575971 26.99136044 -33.63083087 20.30436194 -32.3125 13.3125 C-30.45970965 6.34939903 -27.04673831 2.6297698 -21 -1.01953125 C-14.27668578 -4.315531 -6.36943952 -3.90676149 0 0 Z M-22 10 C-22.33 11.32 -22.66 12.64 -23 14 C-16.07 14 -9.14 14 -2 14 C-3.44041222 8.40425736 -3.44041222 8.40425736 -5.625 6.125 C-12.52799517 2.85516018 -17.16833258 4.81479594 -22 10 Z " fill="#02457E" transform="translate(673,368)"/>
<path d="M0 0 C9.1444592 7.22771666 13.88658482 15.9842482 16.125 27.375 C17.47192574 39.09464252 14.74912662 49.77629795 7.80859375 59.34765625 C1.18964872 67.31803321 -7.50804479 72.81995672 -17.875 74.375 C-31.25792827 75.39417431 -41.72573814 72.94248145 -52.39453125 64.64453125 C-58.88154227 58.70917156 -62.74784747 51.84957569 -64.875 43.375 C-65.101875 42.570625 -65.32875 41.76625 -65.5625 40.9375 C-67.0895385 28.41578433 -64.35464797 17.58531311 -56.875 7.375 C-42.63382426 -10.08192511 -18.47552391 -12.48551137 0 0 Z M-55.875 12.375 C-61.45889481 22.19495295 -63.714045 32.30342016 -60.75 43.375 C-56.97130434 54.48471351 -50.6951166 62.21211086 -40.27734375 67.7578125 C-31.23552587 71.56629544 -21.38830976 71.82545392 -12.0625 68.8125 C-1.69407739 64.44284172 5.14236096 57.17020097 10.22265625 47.2265625 C13.93840824 37.92854123 13.28468854 27.02176968 9.44140625 17.90234375 C4.40431515 8.23172672 -3.35406767 1.0251813 -13.75 -2.5625 C-30.22551721 -6.68782512 -45.32079997 -0.6983095 -55.875 12.375 Z " fill="#378BC1" transform="translate(614.875,111.625)"/>
<path d="M0 0 C3.68031588 3.04940459 6.65010657 6.2003197 8.1875 10.8125 C8.1875 14.4425 8.1875 18.0725 8.1875 21.8125 C-1.7125 21.8125 -11.6125 21.8125 -21.8125 21.8125 C-18.93883921 28.87513776 -18.93883921 28.87513776 -13.8125 32.8125 C-7.44989027 34.29710894 -3.67776003 33.43951225 2.1875 30.8125 C3.1775 30.4825 4.1675 30.1525 5.1875 29.8125 C6.8125 32.0625 6.8125 32.0625 8.1875 34.8125 C7.8125 36.9375 7.8125 36.9375 6.1875 38.8125 C-0.80913495 42.74810716 -8.28062183 43.74706475 -16.0625 41.6875 C-22.18664054 39.53733153 -26.19408963 36.50802017 -29.1875 30.6875 C-31.77940532 24.16977992 -31.79809235 17.27198526 -29.8125 10.5625 C-27.23027496 4.64287089 -22.20715532 0.87679125 -16.4375 -1.6875 C-10.71360515 -2.47700274 -5.36324341 -2.26448055 0 0 Z M-18.8125 8.8125 C-19.4725 10.7925 -20.1325 12.7725 -20.8125 14.8125 C-14.2125 14.8125 -7.6125 14.8125 -0.8125 14.8125 C-1.82420179 9.21106716 -1.82420179 9.21106716 -5.8125 5.8125 C-11.02028832 5.23385685 -14.71721553 5.1990137 -18.8125 8.8125 Z " fill="#02457E" transform="translate(848.8125,367.1875)"/>
<path d="M0 0 C2.97 0 5.94 0 9 0 C12.41197163 7.12588765 15.3388635 14.35833276 18.03173828 21.77929688 C19.07010883 25.14780873 19.07010883 25.14780873 21 28 C21.29769287 27.18732666 21.59538574 26.37465332 21.90209961 25.53735352 C23.00503129 22.53051321 24.11043042 19.52459532 25.2175293 16.51928711 C25.69671624 15.21691907 26.17490993 13.91418515 26.65209961 12.61108398 C27.33708338 10.74107119 28.02590537 8.87246573 28.71484375 7.00390625 C29.12855225 5.87799072 29.54226074 4.7520752 29.96850586 3.59204102 C31 1 31 1 32 0 C33.51928038 -0.07179964 35.04167482 -0.08392007 36.5625 -0.0625 C37.38878906 -0.05347656 38.21507812 -0.04445313 39.06640625 -0.03515625 C39.70449219 -0.02355469 40.34257813 -0.01195312 41 0 C40.37176798 5.82591747 38.24751796 10.86958908 36.0703125 16.25390625 C35.67931366 17.23238022 35.28831482 18.21085419 34.88546753 19.21897888 C34.05952647 21.28183614 33.23061451 23.34350607 32.39892578 25.40405273 C31.1291985 28.55209066 29.87055876 31.7043941 28.61328125 34.85742188 C27.80794833 36.8648469 27.00198001 38.87201715 26.1953125 40.87890625 C25.82020538 41.81859756 25.44509827 42.75828888 25.05862427 43.72645569 C19.97163022 56.28562263 19.97163022 56.28562263 14 59 C8.83215409 60.36509137 5.45519391 59.82088418 0.6015625 57.984375 C-1 57 -1 57 -2 54 C-0.5625 51.3125 -0.5625 51.3125 1 49 C2.216875 49.433125 3.43375 49.86625 4.6875 50.3125 C6.85471067 50.92424632 6.85471067 50.92424632 9 51 C12.27604118 48.76950388 13.64672221 47.13150989 14.82788086 43.34838867 C15.06331571 38.76826256 13.61687103 35.58000315 11.81640625 31.42578125 C11.31487282 30.21730782 11.31487282 30.21730782 10.8032074 28.98442078 C9.73682842 26.42105011 8.65080263 23.86663053 7.5625 21.3125 C6.48114231 18.74640769 5.40404182 16.17865268 4.33250427 13.60844421 C3.66568121 12.01198823 2.99258891 10.41813344 2.31263733 8.82722473 C0 3.33265379 0 3.33265379 0 0 Z " fill="#02457E" transform="translate(658,284)"/>
<path d="M0 0 C3.3 0 6.6 0 10 0 C13.63 9.24 17.26 18.48 21 28 C25.30301617 17.67621567 25.30301617 17.67621567 29.3125 7.25 C29.57611328 6.54101562 29.83972656 5.83203125 30.11132812 5.1015625 C30.74298854 3.40182175 31.37182679 1.7010326 32 0 C35.3 0 38.6 0 42 0 C40.07916152 6.65379334 37.91976665 13.08818513 35.34765625 19.515625 C34.83554848 20.80481842 34.83554848 20.80481842 34.31309509 22.12005615 C33.59674833 23.91912901 32.87818319 25.71732005 32.1574707 27.51464844 C31.06091733 30.25395367 29.97645157 32.99784443 28.89257812 35.7421875 C28.19083199 37.50029069 27.48838229 39.25811324 26.78515625 41.015625 C26.30527 42.23454437 26.30527 42.23454437 25.81568909 43.47808838 C23.35390957 49.57092578 20.81622425 55.4352174 15 59 C11.42365687 60.19211438 8.75935317 60.25926574 5 60 C2.0625 58.5 2.0625 58.5 0 57 C0.99 54.69 1.98 52.38 3 50 C4.0725 50.2475 5.145 50.495 6.25 50.75 C9.97007749 51.4009738 9.97007749 51.4009738 12.3125 49.3125 C15.30264414 45.49453658 15.30264414 45.49453658 15.75415039 40.87353516 C14.75119295 37.05197185 13.21634244 33.56870924 11.62109375 29.9609375 C11.28956802 29.19826569 10.9580423 28.43559387 10.61647034 27.64981079 C9.20307135 24.39833346 7.77838668 21.1518438 6.35375977 17.90527344 C5.31341207 15.52991172 4.27955404 13.15180195 3.24609375 10.7734375 C2.7586393 9.67181778 2.7586393 9.67181778 2.26133728 8.54794312 C0.95461238 5.53777377 0 3.3183456 0 0 Z " fill="#02457E" transform="translate(470,284)"/>
<path d="M0 0 C5.09031755 -0.04936158 10.18049643 -0.08570105 15.27099609 -0.10986328 C17.00344265 -0.11993376 18.73587216 -0.13359089 20.46826172 -0.15087891 C22.95544639 -0.17508162 25.44240675 -0.18647239 27.9296875 -0.1953125 C28.70682098 -0.20563507 29.48395447 -0.21595764 30.28463745 -0.22659302 C32.19125493 -0.22699271 34.09731036 -0.1223214 36 0 C38 2 38 2 38.1953125 4.8203125 C38.17210937 5.91085937 38.14890625 7.00140625 38.125 8.125 C38.10695313 9.22070312 38.08890625 10.31640625 38.0703125 11.4453125 C38.04710937 12.28835938 38.02390625 13.13140625 38 14 C35.36 14 32.72 14 30 14 C29.67 12.35 29.34 10.7 29 9 C22.07 8.505 22.07 8.505 15 8 C15 13.94 15 19.88 15 26 C21.27 26 27.54 26 34 26 C34 28.64 34 31.28 34 34 C27.73 34 21.46 34 15 34 C15 41.92 15 49.84 15 58 C12.03 58 9.06 58 6 58 C6 41.5 6 25 6 8 C4.02 8 2.04 8 0 8 C0 5.36 0 2.72 0 0 Z " fill="#02457E" transform="translate(597,268)"/>
<path d="M0 0 C4.11391375 4.38817467 4.13962586 8.76794232 4.09765625 14.51171875 C4.0962413 15.23994339 4.09482635 15.96816803 4.09336853 16.71846008 C4.08777659 19.04151539 4.07522562 21.36447388 4.0625 23.6875 C4.05748396 25.26367048 4.05292123 26.83984248 4.04882812 28.41601562 C4.0378098 32.27738098 4.02055074 36.13867408 4 40 C1.03 40 -1.94 40 -5 40 C-5.01981934 39.10692139 -5.03963867 38.21384277 -5.06005859 37.29370117 C-5.13818698 33.97799292 -5.22487971 30.66273838 -5.31738281 27.34741211 C-5.35564866 25.91292932 -5.39050581 24.47835135 -5.421875 23.04370117 C-5.46757862 20.98061122 -5.52556193 18.91817505 -5.5859375 16.85546875 C-5.6173584 15.61434326 -5.6487793 14.37321777 -5.68115234 13.09448242 C-5.77399209 9.83363899 -5.77399209 9.83363899 -8 7 C-12.21277712 6.58562848 -14.89370133 6.55748053 -18.8125 8.125 C-22.29649574 11.11128206 -23.77490719 14.14806249 -24.33276367 18.73779297 C-24.51840295 21.95165717 -24.62115873 25.15650065 -24.6875 28.375 C-24.72166016 29.49261719 -24.75582031 30.61023438 -24.79101562 31.76171875 C-24.87316073 34.50771222 -24.94242128 37.25339982 -25 40 C-27.97 40 -30.94 40 -34 40 C-34 26.14 -34 12.28 -34 -2 C-31.03 -2 -28.06 -2 -25 -2 C-24.67 -0.35 -24.34 1.3 -24 3 C-23.278125 2.38125 -22.55625 1.7625 -21.8125 1.125 C-14.64074521 -4.29365918 -7.90366957 -4.25582208 0 0 Z " fill="#02457E" transform="translate(758,286)"/>
<path d="M0 0 C1.77734375 1.48046875 1.77734375 1.48046875 3 3 C2.71483972 6.0417096 1.73969465 7.39045802 0 10 C-5 8 -5 8 -7.3125 6.8125 C-11.0858666 5.67171475 -14.22037624 5.93650263 -18 7 C-21.40569591 9.14706916 -23.80960782 11.10417103 -25 15 C-25.45384141 20.62763352 -25.16579197 24.13824805 -22 29 C-19.18449016 32.02406612 -16.17111177 32.68661229 -12.08984375 33.07421875 C-8.64543713 32.95189403 -6.0169968 31.56651757 -3 30 C-1.7934375 29.4121875 -1.7934375 29.4121875 -0.5625 28.8125 C-0.046875 28.544375 0.46875 28.27625 1 28 C3.04552279 30.20916462 3.95947105 31.45961399 4.1875 34.5 C2.58472123 37.87427109 0.73380599 38.73846708 -2.62890625 40.20703125 C-10.46364875 42.82721696 -17.46376066 42.35088843 -25 39 C-30.15264222 36.06984938 -33.39152638 31.63869402 -35 26 C-35.93793526 18.34338564 -35.8046556 11.30143304 -31 5 C-22.54654498 -3.84663897 -10.87175987 -5.11984041 0 0 Z " fill="#02457E" transform="translate(811,368)"/>
<path d="M0 0 C2.5625 2.1875 2.5625 2.1875 4 4 C2.02 6.97 2.02 6.97 0 10 C-0.556875 9.71125 -1.11375 9.4225 -1.6875 9.125 C-2.450625 8.75375 -3.21375 8.3825 -4 8 C-5.0828125 7.4121875 -5.0828125 7.4121875 -6.1875 6.8125 C-10.2960146 5.62559578 -13.88925217 5.84361903 -18 7 C-21.65281873 9.79790371 -23.95131166 12.49064013 -25 17 C-24.94421162 19.73920942 -24.54386472 22.31874691 -24 25 C-23.835 25.928125 -23.67 26.85625 -23.5 27.8125 C-21.37520006 30.91116658 -19.06801493 31.61475622 -15.515625 32.62890625 C-10.39173136 33.38476013 -5.8436346 32.22908973 -1.5625 29.375 C-0.7890625 28.694375 -0.7890625 28.694375 0 28 C0.66 28 1.32 28 2 28 C2.99 30.31 3.98 32.62 5 35 C3.89932004 35.81721717 2.79430269 36.62859451 1.6875 37.4375 C1.07261719 37.88996094 0.45773437 38.34242188 -0.17578125 38.80859375 C-5.83832245 42.5068273 -13.52152999 41.594479 -20 41 C-25.72862307 38.99541395 -29.60220962 34.89681555 -33 30 C-35.88385573 23.82030914 -35.96293696 17.1590524 -33.75 10.75 C-30.80681365 3.91421236 -26.79365607 0.70684734 -20 -2 C-12.9648582 -4.03684105 -6.56594197 -3.02945971 0 0 Z " fill="#02457E" transform="translate(467,368)"/>
<path d="M0 0 C2.97 0 5.94 0 9 0 C12.92283562 9.57171891 16.45149719 19.28500116 20 29 C20.26216309 28.29915283 20.52432617 27.59830566 20.79443359 26.8762207 C21.98737517 23.68809622 23.18117892 20.50029525 24.375 17.3125 C24.7875 16.20970703 25.2 15.10691406 25.625 13.97070312 C26.02460937 12.90400391 26.42421875 11.83730469 26.8359375 10.73828125 C27.20251465 9.75899658 27.5690918 8.77971191 27.94677734 7.77075195 C28.93602714 5.16829577 29.95750129 2.58152349 31 0 C33.97 0 36.94 0 40 0 C39.34257601 5.10763992 37.85443312 9.62099571 36.09375 14.42578125 C35.80898804 15.21397751 35.52422607 16.00217377 35.23083496 16.81425476 C34.63144507 18.46991638 34.0295526 20.12467391 33.42529297 21.77856445 C32.49741325 24.31958388 31.57819799 26.86361493 30.66015625 29.40820312 C30.07602606 31.01841254 29.49140794 32.62844504 28.90625 34.23828125 C28.63018921 35.00175369 28.35412842 35.76522614 28.06970215 36.55183411 C26.11589548 41.88410452 26.11589548 41.88410452 25 43 C23.31391034 43.07205511 21.62499341 43.08386068 19.9375 43.0625 C19.01839844 43.05347656 18.09929688 43.04445313 17.15234375 43.03515625 C16.44207031 43.02355469 15.73179687 43.01195312 15 43 C13.50565589 39.07175642 12.01238126 35.14310833 10.52001953 31.21411133 C10.01411545 29.88262439 9.50793891 28.55124093 9.00146484 27.2199707 C7.32625357 22.81632126 5.66052619 18.40920925 4 14 C3.58685547 12.91154785 3.17371094 11.8230957 2.74804688 10.70166016 C2.38259766 9.72374512 2.01714844 8.74583008 1.640625 7.73828125 C1.32125977 6.88919189 1.00189453 6.04010254 0.67285156 5.1652832 C0 3 0 3 0 0 Z " fill="#02457E" transform="translate(714,366)"/>
<path d="M0 0 C2.97 0 5.94 0 9 0 C9 5.28 9 10.56 9 16 C13.95 16 18.9 16 24 16 C24 18.64 24 21.28 24 24 C19.05 24 14.1 24 9 24 C9 35.55 9 47.1 9 59 C6.03 59 3.06 59 0 59 C0 39.53 0 20.06 0 0 Z " fill="#02457E" transform="translate(478,350)"/>
<path d="M0 0 C16.92097324 4.37611377 32.36676042 17.68775834 42 32 C39.03 34.97 36.06 37.94 33 41 C17.93891114 34.97556446 7.96730423 18.86084447 1.1796875 4.80078125 C0 2 0 2 0 0 Z " fill="#A7311E" transform="translate(516,71)"/>
<path d="M0 0 C0.495 0.99 0.495 0.99 1 2 C-0.03597628 4.56570735 -1.13079797 6.97393482 -2.375 9.4375 C-2.91930664 10.51741211 -2.91930664 10.51741211 -3.47460938 11.61914062 C-9.18446128 22.56058334 -18.47046792 34.27279895 -29 41 C-32.62585765 40.64335826 -34.30403234 39.02458118 -36.75 36.4375 C-37.67039062 35.47650391 -37.67039062 35.47650391 -38.609375 34.49609375 C-39.06828125 34.00238281 -39.5271875 33.50867188 -40 33 C-35.22284248 19.15849231 -19.76489777 9.57628786 -7.1875 3.375 C-4.80153452 2.22587196 -2.4065 1.10593967 0 0 Z " fill="#A7311E" transform="translate(663,71)"/>
<path d="M0 0 C4.62 0 9.24 0 14 0 C16.80934466 16.85606795 15.52031454 35.4631065 8 51 C7.34 51 6.68 51 6 51 C-0.29449994 34.0625097 -2.08775497 18.00688664 0 0 Z " fill="#A7311E" transform="translate(583,198)"/>
<path d="M0 0 C2.97 0 5.94 0 9 0 C9.33 16.5 9.66 33 10 50 C11.65 50.33 13.3 50.66 15 51 C15.09765625 57.15234375 15.09765625 57.15234375 15 59 C14 60 14 60 12.109375 60.08984375 C11.33078125 60.03957031 10.5521875 59.98929687 9.75 59.9375 C8.59757813 59.88916016 8.59757813 59.88916016 7.421875 59.83984375 C3.74576047 58.5650621 1.74354225 56.38081742 0 53 C-0.6867754 48.93336498 -0.58237559 44.93442908 -0.48828125 40.8203125 C-0.48120651 39.6524118 -0.47413177 38.48451111 -0.46684265 37.28121948 C-0.43892017 33.56182007 -0.37618052 29.84394217 -0.3125 26.125 C-0.28741459 23.59898012 -0.26460185 21.07293657 -0.24414062 18.546875 C-0.18910025 12.36406679 -0.10549322 6.18214211 0 0 Z " fill="#02457E" transform="translate(643,268)"/>
<path d="M0 0 C2.97 0 5.94 0 9 0 C9 19.14 9 38.28 9 58 C6.03 58 3.06 58 0 58 C0 38.86 0 19.72 0 0 Z " fill="#02457E" transform="translate(565,268)"/>
<path d="M0 0 C0.99 2.97 1.98 5.94 3 9 C-0.36914062 10.02539062 -0.36914062 10.02539062 -3.73828125 11.05078125 C-7.24010219 12.5204574 -8.53720846 14.01460033 -10.1484375 17.4453125 C-11.37569224 22.56825661 -11.46978513 27.62356348 -11.625 32.875 C-11.68300781 34.47988281 -11.68300781 34.47988281 -11.7421875 36.1171875 C-11.83602452 38.74462408 -11.92171557 41.37206171 -12 44 C-14.97 44 -17.94 44 -21 44 C-21 29.81 -21 15.62 -21 1 C-18.03 1 -15.06 1 -12 1 C-11.67 2.65 -11.34 4.3 -11 6 C-10.071875 5.195625 -9.14375 4.39125 -8.1875 3.5625 C-5.60269747 1.32233781 -3.56138426 0 0 0 Z " fill="#02457E" transform="translate(709,365)"/>
<path d="M0 0 C0 2.97 0 5.94 0 9 C-1.423125 9.4125 -2.84625 9.825 -4.3125 10.25 C-7.26313307 11.23200033 -8.77690809 11.77690809 -11 14 C-12.83452378 17.66904756 -13.17252589 20.71251436 -13.31640625 24.76171875 C-13.35830078 25.87998047 -13.40019531 26.99824219 -13.44335938 28.15039062 C-13.48267578 29.31763672 -13.52199219 30.48488281 -13.5625 31.6875 C-13.60568359 32.86634766 -13.64886719 34.04519531 -13.69335938 35.25976562 C-13.79951176 38.17305883 -13.90156242 41.08643757 -14 44 C-16.97 44 -19.94 44 -23 44 C-23 29.81 -23 15.62 -23 1 C-20.36 1 -17.72 1 -15 1 C-14.67 2.65 -14.34 4.3 -14 6 C-13.071875 5.195625 -12.14375 4.39125 -11.1875 3.5625 C-7.58871053 0.44354913 -4.72485424 -0.12769876 0 0 Z " fill="#02457E" transform="translate(578,365)"/>
<path d="M0 0 C1.98 0 3.96 0 6 0 C6.66 2.64 7.32 5.28 8 8 C9.41377341 5.36095629 10.37240135 2.92879371 11 0 C12.98 0 14.96 0 17 0 C17.66 2.64 18.32 5.28 19 8 C20.41377341 5.36095629 21.37240135 2.92879371 22 0 C24.31 0 26.62 0 29 0 C28.19331101 3.48054074 27.37868121 6.959174 26.5625 10.4375 C26.33240234 11.43072266 26.10230469 12.42394531 25.86523438 13.44726562 C25.53168945 14.86362305 25.53168945 14.86362305 25.19140625 16.30859375 C24.98717041 17.18314209 24.78293457 18.05769043 24.57250977 18.95874023 C24 21 24 21 23 22 C20.66702567 22.04092937 18.33294775 22.04241723 16 22 C15.67 19.36 15.34 16.72 15 14 C14.34 14 13.68 14 13 14 C12.67 16.64 12.34 19.28 12 22 C9.69 22 7.38 22 5 22 C-0.40254237 6.44067797 -0.40254237 6.44067797 0 0 Z " fill="#378BC1" transform="translate(425,450)"/>
<path d="M0 0 C2.97 0 5.94 0 9 0 C9 14.19 9 28.38 9 43 C6.03 43 3.06 43 0 43 C0 28.81 0 14.62 0 0 Z " fill="#02457E" transform="translate(758,366)"/>
<path d="M0 0 C1.98 0 3.96 0 6 0 C7.6796875 1.75 7.6796875 1.75 8.875 4 C9.28492188 4.7425 9.69484375 5.485 10.1171875 6.25 C10.55417969 7.11625 10.55417969 7.11625 11 8 C11.33 5.36 11.66 2.72 12 0 C14.31 0 16.62 0 19 0 C19 7.26 19 14.52 19 22 C12 22 12 22 10.22265625 20.25 C9.83980469 19.5075 9.45695312 18.765 9.0625 18 C8.66160156 17.2575 8.26070313 16.515 7.84765625 15.75 C7.56792969 15.1725 7.28820312 14.595 7 14 C6.67 16.64 6.34 19.28 6 22 C4.02 22 2.04 22 0 22 C0 14.74 0 7.48 0 0 Z " fill="#378BC1" transform="translate(474,450)"/>
<path d="M0 0 C2.64 0 5.28 0 8 0 C8 13.86 8 27.72 8 42 C5.36 42 2.72 42 0 42 C0 28.14 0 14.28 0 0 Z " fill="#02457E" transform="translate(704,284)"/>
<path d="M0 0 C3.01113945 1.27537931 3.80962762 2.31679384 6 5 C7.37812232 9.305659 7.56043705 12.71099478 5.75 16.875 C5.1725 17.57625 4.595 18.2775 4 19 C3.57976563 19.52851563 3.15953125 20.05703125 2.7265625 20.6015625 C-0.30004905 23.05298091 -3.58356789 22.51884362 -7.328125 22.4296875 C-10 22 -10 22 -13.125 19.625 C-15.73081592 15.97685771 -16.3925416 13.65758437 -16.359375 9.10546875 C-15.72418186 5.38406547 -13.66020984 3.59687151 -11 1 C-7.49759552 -0.75120224 -3.82168145 -0.54503846 0 0 Z M-8.875 7.6875 C-10.21199479 9.96574126 -10.21199479 9.96574126 -9.875 12.625 C-9.1432514 15.32987773 -9.1432514 15.32987773 -6 17 C-3.03923709 16.64111965 -2.15341979 16.15341979 0 14 C0.33333333 11 0.33333333 11 0 8 C-1.82471891 5.78103864 -1.82471891 5.78103864 -4.4375 5.625 C-7.09516517 5.77213053 -7.09516517 5.77213053 -8.875 7.6875 Z " fill="#378BC1" transform="translate(546,450)"/>
<path d="M0 0 C12.46024735 -0.41077739 12.46024735 -0.41077739 17 3 C19.82368571 7.23552856 19.66653757 11.02477314 19 16 C17.20353146 18.93423195 16.0558929 20.47205355 13 22 C8.66396021 22.1393329 4.33919329 22.04254111 0 22 C0 14.74 0 7.48 0 0 Z M6 5 C6 8.96 6 12.92 6 17 C10.86132495 16.50847518 10.86132495 16.50847518 13 14 C13.58345476 11.04253508 13.58345476 11.04253508 13 8 C10.61107499 6.11400657 9.08148442 5 6 5 Z " fill="#378BC1" transform="translate(353,450)"/>
<path d="M0 0 C11 0 11 0 14.25 2.0625 C16 5 16 5 15.875 8.6875 C15 12 15 12 14 14 C14.9873454 15.67419438 15.98812105 17.34051852 17 19 C17 19.99 17 20.98 17 22 C14.69 22 12.38 22 10 22 C9.01 20.02 8.02 18.04 7 16 C6.67 17.98 6.34 19.96 6 22 C4.02 22 2.04 22 0 22 C0 14.74 0 7.48 0 0 Z M6 6 C6 7.32 6 8.64 6 10 C6.99 9.67 7.98 9.34 9 9 C9 8.01 9 7.02 9 6 C8.01 6 7.02 6 6 6 Z " fill="#378BC1" transform="translate(584,450)"/>
<path d="M0 0 C11.17203312 -0.60717571 11.17203312 -0.60717571 14.8125 2.0625 C16.33124752 5.81940176 15.95570274 8.10367344 15 12 C14.67 12.66 14.34 13.32 14 14 C14.9873454 15.67419438 15.98812105 17.34051852 17 19 C17 19.99 17 20.98 17 22 C14.69 22 12.38 22 10 22 C9.01 20.02 8.02 18.04 7 16 C6.67 17.98 6.34 19.96 6 22 C4.02 22 2.04 22 0 22 C0 14.74 0 7.48 0 0 Z M6 5 C6 6.65 6 8.3 6 10 C7.32 9.34 8.64 8.68 10 8 C9.02149805 6.97895449 8.02019573 5.9793879 7 5 C6.67 5 6.34 5 6 5 Z " fill="#378BC1" transform="translate(403,450)"/>
<path d="M0 0 C1.98 0 3.96 0 6 0 C6.06058594 0.98742187 6.12117187 1.97484375 6.18359375 2.9921875 C6.26738281 4.27351563 6.35117187 5.55484375 6.4375 6.875 C6.51871094 8.15117187 6.59992187 9.42734375 6.68359375 10.7421875 C6.79206027 13.88300152 6.79206027 13.88300152 8 16 C9.32 15.67 10.64 15.34 12 15 C12.33 10.05 12.66 5.1 13 0 C14.98 0 16.96 0 19 0 C19.08132187 2.56314499 19.14064175 5.12368418 19.1875 7.6875 C19.21263672 8.40873047 19.23777344 9.12996094 19.26367188 9.87304688 C19.32679275 14.48087064 18.79834732 17.31351222 16 21 C14.26780072 22.73219928 11.97973192 22.21291761 9.625 22.25 C8.64789062 22.27578125 7.67078125 22.3015625 6.6640625 22.328125 C4 22 4 22 2.2109375 20.671875 C-0.63661286 16.74041837 -0.11495662 12.43271787 -0.0625 7.8125 C-0.05798828 7.06291016 -0.05347656 6.31332031 -0.04882812 5.54101562 C-0.03706354 3.69397617 -0.01912865 1.84697787 0 0 Z " fill="#378BC1" transform="translate(558,450)"/>
<path d="M0 0 C2.31 0 4.62 0 7 0 C8.17461555 3.10121711 9.33830456 6.20642241 10.5 9.3125 C10.83386719 10.19357422 11.16773438 11.07464844 11.51171875 11.98242188 C11.82753906 12.82998047 12.14335937 13.67753906 12.46875 14.55078125 C12.90864258 15.72120972 12.90864258 15.72120972 13.35742188 16.9152832 C14 19 14 19 14 22 C12.02 22 10.04 22 8 22 C7.67 20.68 7.34 19.36 7 18 C5.02 18.33 3.04 18.66 1 19 C0.67 19.99 0.34 20.98 0 22 C-1.98 22 -3.96 22 -6 22 C-5.40421223 16.73378394 -4.18691204 12.05591981 -2.4375 7.0625 C-2.20353516 6.37865234 -1.96957031 5.69480469 -1.72851562 4.99023438 C-1.15788171 3.32491499 -0.57972902 1.66217507 0 0 Z M3 9 C3 10.32 3 11.64 3 13 C3.66 13 4.32 13 5 13 C4.34 11.68 3.68 10.36 3 9 Z " fill="#378BC1" transform="translate(383,450)"/>
<path d="M0 0 C1.4540625 0.0309375 1.4540625 0.0309375 2.9375 0.0625 C9.9375 17.08280457 9.9375 17.08280457 9.9375 22.0625 C7.9575 22.0625 5.9775 22.0625 3.9375 22.0625 C3.6075 20.7425 3.2775 19.4225 2.9375 18.0625 C0.9575 18.0625 -1.0225 18.0625 -3.0625 18.0625 C-3.3925 19.3825 -3.7225 20.7025 -4.0625 22.0625 C-6.0425 22.0625 -8.0225 22.0625 -10.0625 22.0625 C-5.67315574 0.11577869 -5.67315574 0.11577869 0 0 Z M-1.0625 10.0625 C-1.0625 11.0525 -1.0625 12.0425 -1.0625 13.0625 C-0.4025 13.0625 0.2575 13.0625 0.9375 13.0625 C0.9375 12.0725 0.9375 11.0825 0.9375 10.0625 C0.2775 10.0625 -0.3825 10.0625 -1.0625 10.0625 Z " fill="#378BC1" transform="translate(701.0625,449.9375)"/>
<path d="M0 0 C2.5625 2 2.5625 2 4 4 C3.34 5.32 2.68 6.64 2 8 C-0.97 7.67 -3.94 7.34 -7 7 C-8.68630119 10.51033129 -8.68630119 10.51033129 -8.625 14.3125 C-8.41875 14.869375 -8.2125 15.42625 -8 16 C-4.53058454 15.54177532 -1.32604951 15.10868317 2 14 C4 17 4 17 3.75 19.125 C3 21 3 21 1 22 C-4.47957298 22.61766523 -8.62589942 23.04431644 -13.125 19.625 C-15.73081592 15.97685771 -16.3925416 13.65758437 -16.359375 9.10546875 C-15.72418186 5.38406547 -13.66020984 3.59687151 -11 1 C-7.55789151 -0.72105424 -3.76366353 -0.51474617 0 0 Z " fill="#378BC1" transform="translate(730,450)"/>
<path d="M0 0 C0.99 0.66 1.98 1.32 3 2 C2.34 3.65 1.68 5.3 1 7 C-0.98 7 -2.96 7 -5 7 C-3.6078125 7.61875 -3.6078125 7.61875 -2.1875 8.25 C0.9223394 9.95736281 2.42883629 10.85767258 4 14 C3.86336554 16.80100648 3.45891983 18.39486281 1.76171875 20.6328125 C-0.59677712 22.4631308 -2.1077761 22.36907056 -5.0625 22.3125 C-5.94035156 22.30863281 -6.81820312 22.30476563 -7.72265625 22.30078125 C-10 22 -10 22 -12 20 C-11.8125 17.9375 -11.8125 17.9375 -11 16 C-7.37673261 14.7922442 -6.35853631 15.45688872 -3 17 C-4.49988939 14.00022122 -7.05159126 13.44411857 -10 12 C-12 10 -12 10 -12.375 7.125 C-12 4 -12 4 -10.5 1.625 C-6.78629977 -0.78890515 -4.39541369 -0.41861083 0 0 Z " fill="#378BC1" transform="translate(631,450)"/>
<path d="M0 0 C6.27 0 12.54 0 19 0 C19 1.98 19 3.96 19 6 C17.02 6 15.04 6 13 6 C13 11.28 13 16.56 13 22 C10.69 22 8.38 22 6 22 C6 16.72 6 11.44 6 6 C4.02 6 2.04 6 0 6 C0 4.02 0 2.04 0 0 Z " fill="#378BC1" transform="translate(784,450)"/>
<path d="M0 0 C2.31 0 4.62 0 7 0 C7.66 1.98 8.32 3.96 9 6 C9.66 6 10.32 6 11 6 C11.66 4.02 12.32 2.04 13 0 C15.31 0 17.62 0 20 0 C18.98195636 3.47831578 17.86396243 6.21848458 15.9375 9.3125 C13.50420584 13.34688363 13.21016958 17.36576074 13 22 C11.02 22 9.04 22 7 22 C6.938125 20.1128125 6.938125 20.1128125 6.875 18.1875 C6.32035479 12.81170797 4.0170461 8.86851713 1.27734375 4.28515625 C0 2 0 2 0 0 Z " fill="#378BC1" transform="translate(807,450)"/>
<path d="M0 0 C4.62 0 9.24 0 14 0 C14 1.98 14 3.96 14 6 C11.36 6 8.72 6 6 6 C6 6.99 6 7.98 6 9 C7.98 9 9.96 9 12 9 C12 10.65 12 12.3 12 14 C10.02 14 8.04 14 6 14 C6 16.64 6 19.28 6 22 C4.02 22 2.04 22 0 22 C0 14.74 0 7.48 0 0 Z " fill="#378BC1" transform="translate(674,450)"/>
<path d="M0 0 C6.27 0 12.54 0 19 0 C19 1.98 19 3.96 19 6 C17.02 6 15.04 6 13 6 C13 11.28 13 16.56 13 22 C11.02 22 9.04 22 7 22 C7 16.72 7 11.44 7 6 C4.69 6 2.38 6 0 6 C0 4.02 0 2.04 0 0 Z " fill="#378BC1" transform="translate(639,450)"/>
<path d="M0 0 C6.27 0 12.54 0 19 0 C19 1.98 19 3.96 19 6 C17.02 6 15.04 6 13 6 C13 11.28 13 16.56 13 22 C11.02 22 9.04 22 7 22 C7 16.72 7 11.44 7 6 C4.69 6 2.38 6 0 6 C0 4.02 0 2.04 0 0 Z " fill="#378BC1" transform="translate(507,450)"/>
<path d="M0 0 C1.98 0 3.96 0 6 0 C6 5.61 6 11.22 6 17 C8.97 17 11.94 17 15 17 C15 18.65 15 20.3 15 22 C10.05 22 5.1 22 0 22 C0 14.74 0 7.48 0 0 Z " fill="#378BC1" transform="translate(752,450)"/>
<path d="M0 0 C1.98 0 3.96 0 6 0 C6 7.26 6 14.52 6 22 C4.02 22 2.04 22 0 22 C0 14.74 0 7.48 0 0 Z " fill="#378BC1" transform="translate(772,450)"/>
<path d="M0 0 C1.98 0 3.96 0 6 0 C6 7.26 6 14.52 6 22 C4.02 22 2.04 22 0 22 C0 14.74 0 7.48 0 0 Z " fill="#378BC1" transform="translate(740,450)"/>
<path d="M0 0 C1.98 0 3.96 0 6 0 C6 7.26 6 14.52 6 22 C4.02 22 2.04 22 0 22 C0 14.74 0 7.48 0 0 Z " fill="#378BC1" transform="translate(607,450)"/>
<path d="M0 0 C1.98 0 3.96 0 6 0 C6 7.26 6 14.52 6 22 C4.02 22 2.04 22 0 22 C0 14.74 0 7.48 0 0 Z " fill="#378BC1" transform="translate(460,450)"/>
<path d="M0 0 C2.31 0.33 4.62 0.66 7 1 C8.32278481 6.41139241 8.32278481 6.41139241 6.9375 8.9375 C4.08906752 10.49954362 2.06495097 9.74921024 -1 9 C-1.625 6.1875 -1.625 6.1875 -2 3 C-1.34 2.01 -0.68 1.02 0 0 Z " fill="#02457E" transform="translate(760,349)"/>
<path d="M0 0 C2.33944736 0.28730055 4.6739143 0.61936779 7 1 C8.32841008 6.43440487 8.32841008 6.43440487 6.875 8.9375 C5 10 5 10 2.4375 9.8125 C0 9 0 9 -2 7 C-1.43181818 1.43181818 -1.43181818 1.43181818 0 0 Z " fill="#02457E" transform="translate(705,267)"/>
<path d="M0 0 C2.64 0 5.28 0 8 0 C7.01 1.98 6.02 3.96 5 6 C4.01 6 3.02 6 2 6 C0 3 0 3 0 0 Z " fill="#B23C1E" transform="translate(602,167)"/>
</svg>
